# xmcd CD database file
#
# Track frame offsets:
#	150
#	9606
#	19680
#	32266
#	44411
#	57935
#	68661
#	87524
#	90223
#	102353
#	113628
#	125137
#	137697
#
# Disc length: 1863 seconds
#
# Revision: 0
# Processed by: cddbd v1.5.2PL0 Copyright (c) Steve Scherf et al.
# Submitted via: CDex 1.51
#
DISCID=a007450d
DTITLE=BLUEFIELD EXPRESS - SAMPLER 2005
DYEAR=2005
DGENRE=Country
TTITLE0=Home Sweet Home
TTITLE1=Kentucky Girl
TTITLE2=The Old Rugged Cross
TTITLE3=Say, Won't You Be Mine
TTITLE4=Cloudy Days
TTITLE5=Jesus Hold My Hand
TTITLE6=Who Will Watch the Home Place
TTITLE7=Intro to Teardrop
TTITLE8=Before The Next Teardrop Falls
TTITLE9=It Won't Work This Time
TTITLE10=Who Will Sing For Me
TTITLE11=Working On A Building
TTITLE12=Bluefield express farewell
EXTD=YEAR: 2005
EXTT0=
EXTT1=
EXTT2=
EXTT3=
EXTT4=
EXTT5=
EXTT6=
EXTT7=
EXTT8=
EXTT9=
EXTT10=
EXTT11=
EXTT12=
PLAYORDER=
